<svg xmlns="http://www.w3.org/2000/svg" fill="none" viewBox="0 0 101 18"><g fill="#111" clip-path="url(#a)"><path d="M1.3 16.5a6.9 6.9 0 0 1-1.3-4.3v-6.4a7 7 0 0 1 1.2-4.3c.8-1 2.2-1.5 4.2-1.5s3.2.5 4 1.3c.9 1 1.3 2.4 1.2 3.8v1.5h-3.9v-1.8c0-.5 0-1-.2-1.5l-.5-.5-.6-.1c-.6 0-1 .1-1.1.5-.3.6-.3 1.1-.3 1.8v8.3l.3 1.6c.2.4.6.5 1.2.5.5 0 .8-.1 1-.5.2-.6.2-1.1.2-1.6v-1.9h3.9v1.5c0 1.4-.3 2.8-1.2 3.9-.8 1-2.1 1.4-4 1.4-2-.1-3.3-.6-4.1-1.6Zm14-16.3h4.5l3.2 17.6h-3.7l-.6-3.7h-2.6l-.6 3.7h-3.7l3.5-17.6Zm3.2 11.6-1-6.9-.9 6.9h1.9Zm7.3-8.6h-2.6v-3h9.4v2.9h-2.7v14.7h-4v-14.6Zm14-3h7v1.9h-4.6v5.7h3.6v1.8h-3.6v6.5h4.5v1.7h-7v-17.6Zm9 0h1.7l5.1 11.6v-11.6h2v17.6h-1.5l-5.1-12v12h-2.1v-17.6Zm11.2 0h7v1.9h-4.5v5.7h3.6v1.8h-3.6v6.5h4.5v1.7h-7v-17.6Zm9 0h3.7c1.4 0 2.9.3 4 1.1 1 .7 1.3 2 1.3 3.5 0 2.3-.7 3.7-2.2 4.1l2.5 8.8h-2.3l-2.4-8.2h-2v8.2h-2.6v-17.5Zm3.5 7.6c.9 0 1.7-.2 2.3-.6.5-.4.8-1.2.8-2.4 0-.5-.1-1.1-.3-1.6a2 2 0 0 0-.9-1c-.4-.2-1.1-.2-1.7-.2h-1.1v5.8h1Zm8.7 8.7a7.6 7.6 0 0 1-1.2-4.5v-5.8c0-1.2 0-2.3.4-3.4a4 4 0 0 1 1.5-2c.8-.5 1.9-.7 2.9-.6 1.6 0 2.8.3 3.5 1.2a5.8 5.8 0 0 1 1.1 3.8v.6h-2.3v-.5c0-.6 0-1.3-.2-2 0-.3-.3-.7-.6-1l-1.4-.3c-.6 0-1.1.1-1.6.5a1.7 1.7 0 0 0-.6 1.2 14 14 0 0 0-.2 2v6.6c0 1 .1 2 .5 3 .3.5 1 .8 1.9.8.4 0 .7 0 1-.2.4-.2.7-.4.9-.7.4-1 .6-2 .5-3.1v-1.3h-2.3v-1.7h4.6v8.7h-1.6l-.2-2c-.2.6-.6 1.2-1.2 1.6-.6.4-1.3.6-2 .6a4 4 0 0 1-3.4-1.5Zm13.5-4.9-3.9-11.3h2.4l2.7 8.5 2.7-8.5h2.4l-3.9 11.3v6.2h-2.3v-6.2h-.1Z"/></g><defs><clipPath id="a"><path fill="#fff" d="M0 0h101v18h-101z"/></clipPath></defs></svg>